<svg xmlns="http://www.w3.org/2000/svg" viewBox="0 0 1440 320" preserveAspectRatio="none"><path fill="#e7008a" fill-opacity="1" d="M0,0L6.5,21.3C13,43,26,85,39,112C51.9,139,65,149,78,170.7C90.8,192,104,224,117,202.7C129.7,181,143,107,156,96C168.6,85,182,139,195,170.7C207.6,203,221,213,234,218.7C246.5,224,259,224,272,229.3C285.4,235,298,245,311,250.7C324.3,256,337,256,350,245.3C363.2,235,376,213,389,208C402.2,203,415,213,428,229.3C441.1,245,454,267,467,234.7C480,203,493,117,506,96C518.9,75,532,117,545,144C557.8,171,571,181,584,202.7C596.8,224,610,256,623,266.7C635.7,277,649,267,662,229.3C674.6,192,688,128,701,133.3C713.5,139,726,213,739,234.7C752.4,256,765,224,778,213.3C791.4,203,804,213,817,202.7C830.3,192,843,160,856,160C869.2,160,882,192,895,213.3C908.1,235,921,245,934,229.3C947,213,960,171,973,181.3C985.9,192,999,256,1012,256C1024.9,256,1038,192,1051,160C1063.8,128,1077,128,1090,128C1102.7,128,1116,128,1129,122.7C1141.6,117,1155,107,1168,96C1180.5,85,1194,75,1206,80C1219.5,85,1232,107,1245,96C1258.4,85,1271,43,1284,26.7C1297.3,11,1310,21,1323,53.3C1336.2,85,1349,139,1362,165.3C1375.1,192,1388,192,1401,186.7C1414.1,181,1427,171,1434,165.3L1440,160L1440,320L1433.5,320C1427,320,1414,320,1401,320C1388.1,320,1375,320,1362,320C1349.2,320,1336,320,1323,320C1310.3,320,1297,320,1284,320C1271.4,320,1258,320,1245,320C1232.4,320,1219,320,1206,320C1193.5,320,1181,320,1168,320C1154.6,320,1142,320,1129,320C1115.7,320,1103,320,1090,320C1076.8,320,1064,320,1051,320C1037.8,320,1025,320,1012,320C998.9,320,986,320,973,320C960,320,947,320,934,320C921.1,320,908,320,895,320C882.2,320,869,320,856,320C843.2,320,830,320,817,320C804.3,320,791,320,778,320C765.4,320,752,320,739,320C726.5,320,714,320,701,320C687.6,320,675,320,662,320C648.6,320,636,320,623,320C609.7,320,597,320,584,320C570.8,320,558,320,545,320C531.9,320,519,320,506,320C493,320,480,320,467,320C454.1,320,441,320,428,320C415.1,320,402,320,389,320C376.2,320,363,320,350,320C337.3,320,324,320,311,320C298.4,320,285,320,272,320C259.5,320,246,320,234,320C220.5,320,208,320,195,320C181.6,320,169,320,156,320C142.7,320,130,320,117,320C103.8,320,91,320,78,320C64.9,320,52,320,39,320C25.9,320,13,320,6,320L0,320Z"></path></svg>